<svg width="20" height="18" viewBox="0 0 20 18" fill="none" xmlns="http://www.w3.org/2000/svg">
<path d="M19.3145 7.84442C20.2285 6.90259 20.2285 5.37568 19.3145 4.43385L19.3099 4.4291L15.6815 0.704589C14.7675 -0.23724 13.2856 -0.232483 12.367 0.704589L4.54241 8.77198L2.04039 11.3454C1.12637 12.2824 1.12637 13.8093 2.03578 14.7512L4.26544 17.0487H0.461627C0.207732 17.0487 0 17.2627 0 17.5243C0 17.7859 0.207732 18 0.461627 18H14.1904C14.4443 18 14.652 17.7859 14.652 17.5243C14.652 17.2627 14.4443 17.0487 14.1904 17.0487H10.3866L11.4899 15.9213L19.3145 7.84442ZM9.08021 17.0487H5.56722L2.69129 14.0805C2.13733 13.5097 2.14195 12.5869 2.69129 12.0161L4.86555 9.7804L10.5066 15.5836L9.08021 17.0487ZM5.52106 9.1097L13.0225 1.38004C13.5765 0.809237 14.4766 0.809237 15.0306 1.38004L18.659 5.10931C19.2129 5.68011 19.2129 6.60291 18.659 7.17848L11.1621 14.9224L5.52106 9.1097Z" fill="white"/>
</svg>
