<svg width="19" height="16" viewBox="0 0 19 16" fill="none" xmlns="http://www.w3.org/2000/svg">
<path d="M18.342 6.97283C19.1678 6.13565 19.1678 4.7784 18.342 3.94122L18.3379 3.93699L15.0597 0.626319C14.2339 -0.210862 12.8951 -0.206634 12.0652 0.626319L4.99585 7.79733L2.73533 10.0848C1.90954 10.9177 1.90954 12.275 2.73116 13.1122L4.74561 15.1544H1.30896C1.07957 15.1544 0.891891 15.3446 0.891891 15.5772C0.891891 15.8097 1.07957 16 1.30896 16H13.7126C13.942 16 14.1296 15.8097 14.1296 15.5772C14.1296 15.3446 13.942 15.1544 13.7126 15.1544H10.2759L11.2727 14.1523L18.342 6.97283ZM9.09563 15.1544H5.92174L3.3234 12.516C2.82292 12.0086 2.82709 11.1883 3.3234 10.681L5.28779 8.69371L10.3844 13.8521L9.09563 15.1544ZM5.88003 8.09753L12.6574 1.22672C13.1579 0.719339 13.9712 0.719339 14.4716 1.22672L17.7498 4.54162C18.2503 5.04901 18.2503 5.86927 17.7498 6.38089L10.9766 13.2644L5.88003 8.09753Z" fill="#B80000"/>
</svg>
