<svg width="18" height="18" viewBox="0 0 18 18" fill="none" xmlns="http://www.w3.org/2000/svg">
<path d="M16.6488 11.3297C16.4007 11.3297 16.1996 11.5304 16.1996 11.778V15.7584C16.1987 16.5008 15.5959 17.1025 14.8518 17.1032H2.24626C1.50219 17.1025 0.899382 16.5008 0.898504 15.7584V4.07633C0.899382 3.33402 1.50219 2.73233 2.24626 2.73145H6.23513C6.48327 2.73145 6.68438 2.53077 6.68438 2.28316C6.68438 2.03572 6.48327 1.83487 6.23513 1.83487H2.24626C1.00626 1.83627 0.00140391 2.83897 0 4.07633V15.7585C0.00140391 16.9959 1.00626 17.9986 2.24626 18H14.8518C16.0918 17.9986 17.0967 16.9959 17.0981 15.7585V11.778C17.0981 11.5304 16.897 11.3297 16.6488 11.3297Z" fill="white"/>
<path d="M16.8816 0.590879C16.0921 -0.19696 14.8121 -0.19696 14.0225 0.590879L6.00757 8.58869C5.95264 8.6435 5.91298 8.71144 5.89227 8.78604L4.83828 12.583C4.79494 12.7387 4.83899 12.9054 4.9534 13.0198C5.068 13.1339 5.23507 13.1779 5.39108 13.1348L9.19622 12.0829C9.27097 12.0622 9.33906 12.0227 9.39399 11.9679L17.4088 3.96988C18.1971 3.18152 18.1971 1.90528 17.4088 1.11692L16.8816 0.590879ZM6.98645 8.88008L13.5461 2.33431L15.6616 4.44531L9.1018 10.9911L6.98645 8.88008ZM6.56387 9.72623L8.25401 11.4129L5.91614 12.0593L6.56387 9.72623ZM16.7735 3.33597L16.2971 3.8114L14.1813 1.70023L14.658 1.22479C15.0965 0.787181 15.8076 0.787181 16.2462 1.22479L16.7735 1.75083C17.2114 2.18897 17.2114 2.89801 16.7735 3.33597Z" fill="white"/>
</svg>
