<svg width="19" height="18" viewBox="0 0 19 18" fill="none" xmlns="http://www.w3.org/2000/svg">
<path d="M17.4776 11.3297C17.2285 11.3297 17.0266 11.5304 17.0266 11.778V15.7584C17.0257 16.5008 16.4206 17.1025 15.6736 17.1032H3.01941C2.27247 17.1025 1.66733 16.5008 1.66645 15.7584V4.07633C1.66733 3.33402 2.27247 2.73233 3.01941 2.73145H7.02368C7.27278 2.73145 7.47467 2.53077 7.47467 2.28316C7.47467 2.03572 7.27278 1.83487 7.02368 1.83487H3.01941C1.77462 1.83627 0.76589 2.83897 0.764481 4.07633V15.7585C0.76589 16.9959 1.77462 17.9986 3.01941 18H15.6736C16.9184 17.9986 17.9272 16.9959 17.9286 15.7585V11.778C17.9286 11.5304 17.7267 11.3297 17.4776 11.3297Z" fill="#3E0C01"/>
<path d="M17.7113 0.590879C16.9187 -0.19696 15.6337 -0.19696 14.8411 0.590879L6.79524 8.58869C6.7401 8.6435 6.70029 8.71144 6.6795 8.78604L5.62144 12.583C5.57793 12.7387 5.62215 12.9054 5.73701 13.0198C5.85204 13.1339 6.01975 13.1779 6.17637 13.1348L9.9962 12.0829C10.0712 12.0622 10.1396 12.0227 10.1947 11.9679L18.2405 3.96988C19.0318 3.18152 19.0318 1.90528 18.2405 1.11692L17.7113 0.590879ZM7.7779 8.88008L14.3628 2.33431L16.4865 4.44531L9.90142 10.9911L7.7779 8.88008ZM7.35369 9.72623L9.05035 11.4129L6.70346 12.0593L7.35369 9.72623ZM17.6027 3.33597L17.1244 3.8114L15.0006 1.70023L15.479 1.22479C15.9193 0.787181 16.6331 0.787181 17.0734 1.22479L17.6027 1.75083C18.0423 2.18897 18.0423 2.89801 17.6027 3.33597Z" fill="#3E0C01"/>
</svg>
