<svg width="12" height="11" viewBox="0 0 12 11" fill="none" xmlns="http://www.w3.org/2000/svg">
<path d="M1.38722 3.84398C0.6206 3.84398 0 4.47032 0 5.24403C0 6.01773 0.6206 6.64407 1.38722 6.64407C2.15385 6.64407 2.77445 6.01773 2.77445 5.24403C2.77201 4.47277 2.15141 3.84644 1.38722 3.84398ZM1.38722 6.15283C0.890743 6.15283 0.486745 5.74755 0.486745 5.24403C0.486745 4.74296 0.888309 4.33523 1.38722 4.33523C1.8837 4.33523 2.2877 4.7405 2.2877 5.24403C2.28527 5.74509 1.8837 6.15037 1.38722 6.15283Z" fill="#884C2A"/>
<path d="M11.7566 4.23698H4.03477C3.90092 4.23698 3.7914 4.34751 3.7914 4.4826C3.7914 4.61769 3.90092 4.72822 4.03477 4.72822H11.7566C11.8905 4.72822 12 4.61769 12 4.4826C12 4.34751 11.8905 4.23698 11.7566 4.23698Z" fill="#884C2A"/>
<path d="M9.47136 5.75984H4.03477C3.90092 5.75984 3.7914 5.87036 3.7914 6.00546C3.7914 6.14055 3.89848 6.25108 4.03477 6.25108H9.47136C9.60522 6.25108 9.71474 6.14055 9.71474 6.00546C9.71474 5.87036 9.60522 5.75984 9.47136 5.75984Z" fill="#884C2A"/>
<path d="M1.38722 0C0.6206 0 0 0.626336 0 1.40005C0 2.17375 0.6206 2.80009 1.38722 2.80009C2.15385 2.80009 2.77445 2.17375 2.77445 1.40005C2.77201 0.626336 2.15141 0 1.38722 0ZM1.38722 2.30639C0.890743 2.30639 0.486745 1.90111 0.486745 1.39759C0.486745 0.894064 0.888309 0.488788 1.38722 0.488788C1.8837 0.488788 2.2877 0.894064 2.2877 1.39759C2.28527 1.90111 1.8837 2.30639 1.38722 2.30639Z" fill="#884C2A"/>
<path d="M11.7566 0.380714H4.03477C3.90092 0.380714 3.7914 0.491244 3.7914 0.626336C3.7914 0.761428 3.90092 0.871958 4.03477 0.871958H11.7566C11.8905 0.871958 12 0.761428 12 0.626336C12 0.491244 11.8905 0.380714 11.7566 0.380714Z" fill="#884C2A"/>
<path d="M9.47136 1.92813H4.03477C3.90092 1.92813 3.7914 2.03866 3.7914 2.17375C3.7914 2.30885 3.89848 2.41938 4.03477 2.41938H9.47136C9.60522 2.41938 9.71474 2.30885 9.71474 2.17375C9.71474 2.03866 9.60522 1.92813 9.47136 1.92813Z" fill="#884C2A"/>
<path d="M1.38722 7.69043C0.6206 7.69043 0 8.31676 0 9.09047C0 9.86418 0.6206 10.4905 1.38722 10.4905C2.15385 10.4905 2.77445 9.86418 2.77445 9.09047C2.77201 8.31676 2.15141 7.69043 1.38722 7.69043ZM1.38722 9.99682C0.890743 9.99682 0.486745 9.59154 0.486745 9.08802C0.486745 8.58695 0.888309 8.17921 1.38722 8.17921C1.8837 8.17921 2.2877 8.58449 2.2877 9.08802C2.28527 9.59154 1.8837 9.99682 1.38722 9.99682Z" fill="#884C2A"/>
<path d="M11.7566 8.06868H4.03477C3.90092 8.06868 3.7914 8.17921 3.7914 8.31431C3.7914 8.4494 3.90092 8.55993 4.03477 8.55993H11.7566C11.8905 8.55993 12 8.4494 12 8.31431C12 8.17921 11.8905 8.06868 11.7566 8.06868Z" fill="#884C2A"/>
<path d="M9.47136 9.6161H4.03477C3.90092 9.6161 3.7914 9.72663 3.7914 9.86172C3.7914 9.99681 3.90092 10.1073 4.03477 10.1073H9.47136C9.60522 10.1073 9.71474 9.99681 9.71474 9.86172C9.71474 9.72663 9.60522 9.6161 9.47136 9.6161Z" fill="#884C2A"/>
</svg>
