<svg width="91" height="19" viewBox="0 0 91 19" fill="none" xmlns="http://www.w3.org/2000/svg">
<path d="M31.8724 15C31.6911 15 31.5418 14.9413 31.4244 14.824C31.3071 14.7067 31.2484 14.5573 31.2484 14.376V3.12801C31.2484 2.94667 31.3071 2.79734 31.4244 2.68001C31.5418 2.56267 31.6911 2.50401 31.8724 2.50401H34.8644C35.6431 2.50401 36.3364 2.66934 36.9444 3.00001C37.5524 3.32001 38.0271 3.77334 38.3684 4.36001C38.7204 4.93601 38.8964 5.60267 38.8964 6.36001C38.8964 7.08534 38.7204 7.73067 38.3684 8.29601C38.0271 8.86134 37.5524 9.30401 36.9444 9.62401C36.3364 9.94401 35.6431 10.104 34.8644 10.104H32.4964V14.376C32.4964 14.5573 32.4378 14.7067 32.3204 14.824C32.2031 14.9413 32.0538 15 31.8724 15ZM38.5604 15C38.4218 15 38.3098 14.9733 38.2244 14.92C38.1498 14.8667 38.0804 14.7867 38.0164 14.68L34.9444 9.78401L36.1924 9.46401L39.0564 14.04C39.2164 14.296 39.2431 14.52 39.1364 14.712C39.0404 14.904 38.8484 15 38.5604 15ZM32.4964 8.90401H34.8644C35.4084 8.90401 35.8884 8.79734 36.3044 8.58401C36.7311 8.36001 37.0671 8.05601 37.3124 7.67201C37.5578 7.28801 37.6804 6.85067 37.6804 6.36001C37.6804 5.83734 37.5578 5.37867 37.3124 4.98401C37.0671 4.57867 36.7311 4.26401 36.3044 4.04001C35.8884 3.81601 35.4084 3.70401 34.8644 3.70401H32.4964V8.90401ZM44.9471 15.08C44.0831 15.08 43.3151 14.8933 42.6431 14.52C41.9817 14.136 41.4591 13.608 41.0751 12.936C40.7017 12.264 40.5151 11.496 40.5151 10.632C40.5151 9.75734 40.6911 8.98934 41.0431 8.32801C41.4057 7.65601 41.9017 7.12801 42.5311 6.74401C43.1604 6.36001 43.8857 6.16801 44.7071 6.16801C45.5177 6.16801 46.2217 6.35467 46.8191 6.72801C47.4271 7.09067 47.8964 7.59734 48.2271 8.24801C48.5577 8.89867 48.7231 9.64001 48.7231 10.472C48.7231 10.6427 48.6697 10.7813 48.5631 10.888C48.4564 10.984 48.3177 11.032 48.1471 11.032H41.3471V10.008H48.2751L47.5871 10.504C47.5977 9.88534 47.4857 9.33067 47.2511 8.84001C47.0164 8.34934 46.6804 7.96534 46.2431 7.68801C45.8164 7.41067 45.3044 7.27201 44.7071 7.27201C44.0991 7.27201 43.5657 7.41601 43.1071 7.70401C42.6484 7.99201 42.2911 8.39201 42.0351 8.90401C41.7897 9.40534 41.6671 9.98134 41.6671 10.632C41.6671 11.2827 41.8057 11.8587 42.0831 12.36C42.3711 12.8613 42.7604 13.256 43.2511 13.544C43.7417 13.832 44.3071 13.976 44.9471 13.976C45.3311 13.976 45.7151 13.912 46.0991 13.784C46.4937 13.6453 46.8084 13.4747 47.0431 13.272C47.1604 13.176 47.2937 13.128 47.4431 13.128C47.5924 13.1173 47.7204 13.1547 47.8271 13.24C47.9657 13.368 48.0351 13.5067 48.0351 13.656C48.0457 13.8053 47.9871 13.9333 47.8591 14.04C47.5071 14.3387 47.0591 14.5893 46.5151 14.792C45.9711 14.984 45.4484 15.08 44.9471 15.08ZM54.3987 15.08C53.556 15.08 52.804 14.888 52.1427 14.504C51.492 14.1093 50.9747 13.576 50.5907 12.904C50.2174 12.232 50.0307 11.4747 50.0307 10.632C50.0307 9.77867 50.212 9.01601 50.5747 8.34401C50.9374 7.67201 51.4334 7.14401 52.0627 6.76001C52.692 6.36534 53.4174 6.16801 54.2387 6.16801C54.8894 6.16801 55.4867 6.29601 56.0307 6.55201C56.5854 6.80801 57.0707 7.19201 57.4867 7.70401C57.604 7.83201 57.6467 7.97067 57.6147 8.12001C57.5827 8.25867 57.492 8.38134 57.3427 8.48801C57.2254 8.57334 57.092 8.60534 56.9427 8.58401C56.804 8.55201 56.6814 8.47201 56.5747 8.34401C55.956 7.64001 55.1774 7.28801 54.2387 7.28801C53.6414 7.28801 53.1134 7.43201 52.6547 7.72001C52.2067 8.00801 51.8547 8.40267 51.5987 8.90401C51.3534 9.40534 51.2307 9.98134 51.2307 10.632C51.2307 11.272 51.364 11.8427 51.6307 12.344C51.8974 12.8453 52.2707 13.24 52.7507 13.528C53.2307 13.816 53.78 13.96 54.3987 13.96C54.8147 13.96 55.1934 13.9067 55.5347 13.8C55.8867 13.6827 56.196 13.5067 56.4627 13.272C56.5907 13.1653 56.724 13.1067 56.8627 13.096C57.0014 13.0853 57.1294 13.128 57.2467 13.224C57.3747 13.3413 57.444 13.4747 57.4547 13.624C57.476 13.7733 57.428 13.9013 57.3107 14.008C56.532 14.7227 55.5614 15.08 54.3987 15.08ZM60.9059 15C60.7139 15 60.5593 14.9467 60.4419 14.84C60.3353 14.7227 60.2819 14.568 60.2819 14.376V6.87201C60.2819 6.68001 60.3353 6.53067 60.4419 6.42401C60.5593 6.30667 60.7139 6.24801 60.9059 6.24801C61.0873 6.24801 61.2313 6.30667 61.3379 6.42401C61.4553 6.53067 61.5139 6.68001 61.5139 6.87201V14.376C61.5139 14.568 61.4553 14.7227 61.3379 14.84C61.2313 14.9467 61.0873 15 60.9059 15ZM60.8899 4.58401C60.6553 4.58401 60.4526 4.49867 60.2819 4.32801C60.1113 4.15734 60.0259 3.94934 60.0259 3.70401C60.0259 3.43734 60.1113 3.22934 60.2819 3.08001C60.4633 2.92001 60.6713 2.84001 60.9059 2.84001C61.1299 2.84001 61.3273 2.92001 61.4979 3.08001C61.6793 3.22934 61.7699 3.43734 61.7699 3.70401C61.7699 3.94934 61.6846 4.15734 61.5139 4.32801C61.3433 4.49867 61.1353 4.58401 60.8899 4.58401ZM65.2749 18.744C65.0829 18.744 64.9283 18.6853 64.8109 18.568C64.7043 18.4613 64.6509 18.312 64.6509 18.12V10.568C64.6616 9.73601 64.8589 8.98934 65.2429 8.32801C65.6376 7.65601 66.1656 7.12801 66.8269 6.74401C67.4989 6.36001 68.2509 6.16801 69.0829 6.16801C69.9363 6.16801 70.6989 6.36534 71.3709 6.76001C72.0429 7.14401 72.5709 7.67201 72.9549 8.34401C73.3496 9.01601 73.5469 9.77867 73.5469 10.632C73.5469 11.4747 73.3549 12.232 72.9709 12.904C72.5976 13.576 72.0856 14.1093 71.4349 14.504C70.7843 14.888 70.0483 15.08 69.2269 15.08C68.5123 15.08 67.8616 14.9307 67.2749 14.632C66.6989 14.3227 66.2349 13.9173 65.8829 13.416V18.12C65.8829 18.312 65.8243 18.4613 65.7069 18.568C65.6003 18.6853 65.4563 18.744 65.2749 18.744ZM69.0829 13.96C69.7016 13.96 70.2563 13.816 70.7469 13.528C71.2376 13.24 71.6216 12.8453 71.8989 12.344C72.1869 11.832 72.3309 11.2613 72.3309 10.632C72.3309 9.99201 72.1869 9.42134 71.8989 8.92001C71.6216 8.41867 71.2376 8.02401 70.7469 7.73601C70.2563 7.43734 69.7016 7.28801 69.0829 7.28801C68.4749 7.28801 67.9256 7.43734 67.4349 7.73601C66.9443 8.02401 66.5603 8.41867 66.2829 8.92001C66.0056 9.42134 65.8669 9.99201 65.8669 10.632C65.8669 11.2613 66.0056 11.832 66.2829 12.344C66.5603 12.8453 66.9443 13.24 67.4349 13.528C67.9256 13.816 68.4749 13.96 69.0829 13.96ZM79.9314 15.08C79.0674 15.08 78.2994 14.8933 77.6274 14.52C76.9661 14.136 76.4434 13.608 76.0594 12.936C75.6861 12.264 75.4994 11.496 75.4994 10.632C75.4994 9.75734 75.6754 8.98934 76.0274 8.32801C76.3901 7.65601 76.8861 7.12801 77.5154 6.74401C78.1448 6.36001 78.8701 6.16801 79.6914 6.16801C80.5021 6.16801 81.2061 6.35467 81.8034 6.72801C82.4114 7.09067 82.8808 7.59734 83.2114 8.24801C83.5421 8.89867 83.7074 9.64001 83.7074 10.472C83.7074 10.6427 83.6541 10.7813 83.5474 10.888C83.4408 10.984 83.3021 11.032 83.1314 11.032H76.3314V10.008H83.2594L82.5714 10.504C82.5821 9.88534 82.4701 9.33067 82.2354 8.84001C82.0008 8.34934 81.6648 7.96534 81.2274 7.68801C80.8008 7.41067 80.2888 7.27201 79.6914 7.27201C79.0834 7.27201 78.5501 7.41601 78.0914 7.70401C77.6328 7.99201 77.2754 8.39201 77.0194 8.90401C76.7741 9.40534 76.6514 9.98134 76.6514 10.632C76.6514 11.2827 76.7901 11.8587 77.0674 12.36C77.3554 12.8613 77.7448 13.256 78.2354 13.544C78.7261 13.832 79.2914 13.976 79.9314 13.976C80.3154 13.976 80.6994 13.912 81.0834 13.784C81.4781 13.6453 81.7928 13.4747 82.0274 13.272C82.1448 13.176 82.2781 13.128 82.4274 13.128C82.5768 13.1173 82.7048 13.1547 82.8114 13.24C82.9501 13.368 83.0194 13.5067 83.0194 13.656C83.0301 13.8053 82.9714 13.9333 82.8434 14.04C82.4914 14.3387 82.0434 14.5893 81.4994 14.792C80.9554 14.984 80.4328 15.08 79.9314 15.08Z" fill="white"/>
<path d="M0.0915462 3.32706C-0.00858097 4.52845 3.74619 5.67263 9.00286 5.72984C17.3635 5.72984 20.6677 4.35682 20.8679 3.32706C21.0682 2.2973 17.9142 0.00893781 9.00286 0.00893844C3.5 0.00893883 0.0915462 2.18288 0.0915462 3.32706Z" fill="white"/>
<path d="M9.00286 5.72984C3.74619 5.67263 -0.00858097 4.52845 0.0915462 3.32706C-0.0303025 4.05992 -0.0307281 4.6351 0.0915462 5.95868C-0.00858097 7.16007 3.74619 8.30425 9.00286 8.36145C17.3635 8.36145 20.6677 6.98844 20.8679 5.95868C21.0682 5.21496 21.0181 3.72752 20.8679 3.32706C20.6677 4.35682 17.3635 5.72984 9.00286 5.72984Z" fill="white"/>
<path d="M9.00286 9.9633C3.77519 9.90641 0.0329021 8.77451 0.0902398 7.58041C0.0272656 8.54071 0.00416576 9.10495 0.0915429 10.3066C-0.00858419 11.508 3.74618 12.6521 9.00286 12.7093C17.3635 12.7093 20.6677 11.3363 20.8679 10.3066C20.956 9.48037 20.9552 8.38371 20.8679 7.56053C20.6677 8.59029 17.3635 9.9633 9.00286 9.9633Z" fill="white"/>
<path d="M9.00286 14.3112C3.83237 14.2549 0.114947 13.147 0.0897159 11.9675C0.0598138 12.949 0.0669577 13.485 0.0915393 14.5972C-0.00858779 15.7986 3.74618 16.9428 9.00285 17C17.3635 17 20.6677 15.627 20.8679 14.5972C20.9399 14.0302 20.9687 12.6689 20.8679 11.9084C20.6677 12.9382 17.3635 14.3112 9.00286 14.3112Z" fill="white"/>
</svg>
