<svg width="41" height="24" viewBox="0 0 41 24" fill="none" xmlns="http://www.w3.org/2000/svg">
<g filter="url(#filter0_d)">
<path d="M3.41421 8.07958C2.41421 7.57958 1.41421 9.57958 2.41421 10.0796L17.5198 17.6324C18.0828 17.9139 18.7456 17.9139 19.3086 17.6324L34.4142 10.0796C35.4142 9.57957 34.4142 7.57957 33.4142 8.07958L19.3064 15.1111C18.7446 15.3911 18.0839 15.3911 17.5221 15.1111L3.41421 8.07958Z" fill="#ECCE9E"/>
<path d="M3.41421 2.07958C2.41421 1.57958 1.41421 3.57958 2.41421 4.07958L17.5198 11.6324C18.0828 11.9139 18.7456 11.9139 19.3086 11.6324L34.4142 4.07958C35.4142 3.57957 34.4142 1.57957 33.4142 2.07958L19.3064 9.1111C18.7446 9.39112 18.0839 9.39112 17.5221 9.1111L3.41421 2.07958Z" fill="#ECCE9E"/>
</g>
<defs>
<filter id="filter0_d" x="0" y="0" width="40.8284" height="23.8435" filterUnits="userSpaceOnUse" color-interpolation-filters="sRGB">
<feFlood flood-opacity="0" result="BackgroundImageFix"/>
<feColorMatrix in="SourceAlpha" type="matrix" values="0 0 0 0 0 0 0 0 0 0 0 0 0 0 0 0 0 0 127 0"/>
<feOffset dx="2" dy="2"/>
<feGaussianBlur stdDeviation="2"/>
<feColorMatrix type="matrix" values="0 0 0 0 0 0 0 0 0 0 0 0 0 0 0 0 0 0 0.25 0"/>
<feBlend mode="normal" in2="BackgroundImageFix" result="effect1_dropShadow"/>
<feBlend mode="normal" in="SourceGraphic" in2="effect1_dropShadow" result="shape"/>
</filter>
</defs>
</svg>
