<svg width="12" height="9" viewBox="0 0 12 9" fill="none" xmlns="http://www.w3.org/2000/svg">
<path d="M11.9307 6.35713C11.8415 6.20931 11.6839 6.12105 11.5092 6.12105H11.2707C11.1551 3.691 9.24033 1.71609 6.81015 1.45897C6.90655 1.3114 6.96275 1.1361 6.96275 0.948038C6.96275 0.425281 6.53041 0 5.99898 0C5.46755 0 5.03521 0.425281 5.03521 0.948015C5.03521 1.13608 5.09141 1.31138 5.18781 1.45894C2.75763 1.7161 0.842851 3.691 0.727257 6.12105H0.488801C0.124926 6.12105 -0.117105 6.51767 0.0584763 6.8342L0.36717 7.39075C0.686847 7.96711 1.30009 8.32516 1.96757 8.32516H8.10946C8.41342 8.32516 8.41387 7.85943 8.10946 7.85943H1.96757C1.47342 7.85943 1.01945 7.59436 0.782793 7.16766L0.4741 6.61112C0.469602 6.59749 0.474502 6.58939 0.488824 6.58676H11.5092C11.5235 6.58939 11.5284 6.59752 11.5239 6.61112L11.2152 7.16766C10.9785 7.59436 10.5245 7.85943 10.0304 7.85943C9.72643 7.85943 9.72598 8.32516 10.0304 8.32516C10.6979 8.32516 11.3111 7.96711 11.6308 7.39075L11.9395 6.8342C12.0232 6.6833 12.0199 6.50495 11.9307 6.35713ZM5.99898 0.465706C6.26932 0.465706 6.48929 0.682084 6.48929 0.948015C6.48929 1.21397 6.26932 1.43032 5.99898 1.43032C5.72864 1.43032 5.50867 1.21395 5.50867 0.948015C5.50867 0.682084 5.72861 0.465706 5.99898 0.465706ZM1.20107 6.12103C1.32471 3.77087 3.30738 1.89605 5.72677 1.89605H6.27117C8.69055 1.89605 10.6732 3.77087 10.7969 6.12103H1.20107Z" fill="#884C2A"/>
<path d="M9.27608 8.02644C9.22644 7.90931 9.08627 7.85186 8.96691 7.90046C8.84767 7.94902 8.78986 8.08762 8.83908 8.20458C8.88844 8.32188 9.02874 8.379 9.14801 8.33056C9.2676 8.28199 9.32496 8.14388 9.27608 8.02644Z" fill="#884C2A"/>
</svg>
