<svg width="20" height="20" viewBox="0 0 20 20" fill="none" xmlns="http://www.w3.org/2000/svg">
<path d="M3.54436 7.05967C3.32875 7.05967 3.15373 7.23454 3.15373 7.45014C3.15373 7.66575 3.32875 7.84077 3.54436 7.84077C3.75997 7.84077 3.93499 7.66575 3.93499 7.45014C3.93499 7.23454 3.75997 7.05967 3.54436 7.05967Z" fill="#884C2A"/>
<path d="M14.4891 11.7272C14.4161 11.654 14.3166 11.6128 14.213 11.6128C14.209 11.6136 14.0588 11.6052 13.9368 11.7272L13.6607 12.0033L12.7632 11.1059C14.7438 8.32957 14.4426 4.49976 12.0035 2.0608C9.25597 -0.686703 4.80862 -0.687161 2.0608 2.0608C-0.686706 4.80814 -0.687164 9.25563 2.0608 12.0034C4.49383 14.4366 8.32213 14.7488 11.1058 12.7632L12.0033 13.6607L11.7273 13.9367C11.5749 14.0892 11.5747 14.3367 11.7273 14.4892L16.6657 19.4271C17.4288 20.1907 18.664 20.1912 19.4272 19.4273C20.1908 18.6644 20.1911 17.429 19.4272 16.6658L14.4891 11.7272ZM12.5557 13.1083L11.7194 12.272C11.8166 12.1849 11.9116 12.0954 12.0035 12.0034C12.0955 11.9116 12.1849 11.8165 12.272 11.7195L13.1084 12.5558L12.5557 13.1083ZM2.61318 11.4511C0.170842 9.00889 0.170537 5.05564 2.61318 2.61317C5.05536 0.170841 9.00862 0.170536 11.4511 2.61317C13.8879 5.04984 13.9003 9.00218 11.4511 11.4511C8.97429 13.9282 5.02209 13.8601 2.61318 11.4511ZM14.213 12.5558L15.3176 13.6605L13.6606 15.3175L12.5559 14.2129L14.213 12.5558ZM18.8748 18.8749C18.4171 19.3332 17.6763 19.3333 17.2182 18.8749L14.213 15.8699L15.8699 14.2129L18.875 17.2183C19.3331 17.6759 19.3335 18.4167 18.8748 18.8749Z" fill="#884C2A"/>
<path d="M10.8987 3.16547C8.76259 1.02939 5.30203 1.02817 3.16503 3.16517C1.03336 5.29728 1.03336 8.76652 3.16503 10.8988C5.30233 13.0359 8.76091 13.0361 10.8984 10.8988C13.0305 8.76652 13.0306 5.29743 10.8987 3.16547ZM10.346 10.3463C8.51417 12.1781 5.54968 12.1785 3.7174 10.3464C1.8903 8.51872 1.8903 5.54508 3.7174 3.71738C5.54831 1.88663 8.51478 1.88617 10.3463 3.71784C12.1737 5.54524 12.1736 8.51872 10.346 10.3463Z" fill="#884C2A"/>
<path d="M7.03193 3.12641C5.98792 3.12641 5.00708 3.5326 4.27007 4.27006C3.84282 4.69731 3.52834 5.20207 3.33547 5.77061C3.26619 5.97477 3.37545 6.19664 3.57976 6.26591C3.78438 6.33534 4.00594 6.22548 4.07522 6.02162C4.22918 5.56767 4.48065 5.16423 4.82244 4.82228C5.41205 4.23252 6.19666 3.90766 7.03193 3.90766C7.24769 3.90766 7.42255 3.7328 7.42255 3.51704C7.42255 3.30128 7.24769 3.12641 7.03193 3.12641Z" fill="#884C2A"/>
</svg>
