<svg width="12" height="12" viewBox="0 0 12 12" fill="none" xmlns="http://www.w3.org/2000/svg">
<path d="M0.0231405 6.28157C0.130884 5.20338 0.61504 4.18691 1.38647 3.41939C2.04573 2.76352 2.85265 2.34204 3.70171 2.15463V1.56216C3.35493 1.47633 3.09716 1.16402 3.09716 0.792821C3.09716 0.35565 3.45463 0 3.89404 0H5.58157C6.02098 0 6.37845 0.35565 6.37845 0.792821C6.37845 1.164 6.12069 1.4763 5.77392 1.56216V2.15629C6.62038 2.34449 7.42463 2.76538 8.08201 3.41941C8.22587 3.56254 8.35853 3.71269 8.47996 3.86873C8.48585 3.86829 8.49173 3.86785 8.49773 3.86785H10.1679C10.2974 3.86785 10.4023 3.97224 10.4023 4.10103C10.4023 4.22982 10.2974 4.33421 10.1679 4.33421H8.79888C8.97073 4.62044 9.10929 4.92104 9.21476 5.23047H11.7656C11.895 5.23047 12 5.33487 12 5.46366C12 5.59244 11.895 5.69684 11.7656 5.69684H9.34721C9.41476 5.99184 9.45352 6.29206 9.46353 6.59312H10.5C10.6294 6.59312 10.7344 6.69752 10.7344 6.82631C10.7344 6.95509 10.6294 7.05949 10.5 7.05949H9.45606C9.43627 7.36132 9.3875 7.66157 9.30971 7.95577H10.8281C10.9575 7.95577 11.0625 8.06017 11.0625 8.18896C11.0625 8.31774 10.9575 8.42214 10.8281 8.42214H9.16013C8.9302 9.02727 8.57088 9.59444 8.08201 10.0808C7.30983 10.8491 6.28709 11.3309 5.20225 11.4375C5.04742 11.4527 4.89247 11.4602 4.73774 11.4602C3.82314 11.4602 2.92018 11.1969 2.15399 10.7005C2.04552 10.6302 2.01484 10.4858 2.08548 10.3778C2.15613 10.2699 2.30132 10.2394 2.40979 10.3097C4.08694 11.3962 6.33306 11.1613 7.75055 9.75105C9.41375 8.09634 9.41375 5.40394 7.75055 3.7492C6.08738 2.09452 3.38118 2.09452 1.71795 3.7492C0.302332 5.15763 0.0649068 7.39038 1.15343 9.05814C1.22393 9.16615 1.19306 9.31059 1.08452 9.38071C0.975913 9.45085 0.830785 9.42014 0.760308 9.31213C0.178721 8.42102 -0.0830798 7.34476 0.0231405 6.28157ZM5.9097 0.792844C5.9097 0.612827 5.76251 0.466389 5.58157 0.466389H3.89404C3.7131 0.466389 3.56591 0.612827 3.56591 0.792844C3.56591 0.972861 3.7131 1.1193 3.89404 1.1193H5.58157C5.76251 1.1193 5.9097 0.972838 5.9097 0.792844ZM5.30517 2.07612V1.58567H4.17047V2.07528C4.54726 2.03069 4.92845 2.03097 5.30517 2.07612Z" fill="#884C2A"/>
<path d="M1.55211 9.68264C1.61399 9.68264 1.67422 9.70759 1.71779 9.75096C1.76162 9.79433 1.78649 9.85449 1.78649 9.91582C1.78649 9.97714 1.76162 10.0373 1.71779 10.0807C1.67422 10.1243 1.61396 10.149 1.55211 10.149C1.49047 10.149 1.43024 10.1243 1.38641 10.0807C1.34281 10.0373 1.31774 9.97714 1.31774 9.91582C1.31774 9.85449 1.34279 9.79433 1.38641 9.75096C1.43024 9.70759 1.49049 9.68264 1.55211 9.68264Z" fill="#884C2A"/>
<path d="M4.73424 3.13274C6.73907 3.13274 8.37013 4.75546 8.37013 6.75008C8.37013 8.74471 6.73907 10.3674 4.73424 10.3674C2.72941 10.3674 1.09835 8.74471 1.09835 6.75008C1.09835 4.75546 2.72941 3.13274 4.73424 3.13274ZM4.73424 9.90106C6.48062 9.90106 7.90137 8.48753 7.90137 6.75008C7.90137 5.01264 6.48062 3.59911 4.73424 3.59911C2.98786 3.59911 1.56711 5.01264 1.56711 6.75008C1.56711 8.48753 2.98786 9.90106 4.73424 9.90106Z" fill="#884C2A"/>
<path d="M3.25166 4.9453L4.41254 6.10023C4.50962 6.05247 4.61881 6.02549 4.73424 6.02549C4.8497 6.02549 4.95887 6.05247 5.05595 6.10023L5.5755 5.58333C5.66705 5.49227 5.81541 5.49227 5.90698 5.58333C5.9985 5.67439 5.9985 5.82204 5.90698 5.9131L5.38743 6.42999C5.43546 6.52658 5.46255 6.63522 5.46255 6.75006C5.46255 7.14959 5.13585 7.47465 4.73424 7.47465C4.33264 7.47465 4.00594 7.14959 4.00594 6.75006C4.00594 6.63522 4.03305 6.52658 4.08106 6.42999L2.9202 5.27506C2.82868 5.184 2.82868 5.03635 2.9202 4.9453C3.01173 4.85424 3.16009 4.85424 3.25166 4.9453ZM4.73424 7.00831C4.87736 7.00831 4.99379 6.89246 4.99379 6.75008C4.99379 6.6077 4.87736 6.49186 4.73424 6.49186C4.59113 6.49186 4.47469 6.6077 4.47469 6.75008C4.47469 6.89246 4.59113 7.00831 4.73424 7.00831Z" fill="#884C2A"/>
<path d="M2.2283 6.51974H2.44545C2.57487 6.51974 2.67983 6.62414 2.67983 6.75292C2.67983 6.88171 2.57487 6.9861 2.44545 6.9861H2.2283C2.09888 6.9861 1.99393 6.88171 1.99393 6.75292C1.99393 6.62414 2.09888 6.51974 2.2283 6.51974Z" fill="#884C2A"/>
<path d="M7.02307 6.51406H7.24019C7.36962 6.51406 7.47457 6.61845 7.47457 6.74723C7.47457 6.87602 7.36962 6.98041 7.24019 6.98041H7.02307C6.89365 6.98041 6.78869 6.87602 6.78869 6.74723C6.78869 6.61845 6.89365 6.51406 7.02307 6.51406Z" fill="#884C2A"/>
<path d="M4.73139 4.70611C4.60197 4.70611 4.49701 4.60172 4.49701 4.47293V4.25692C4.49701 4.12813 4.60197 4.02374 4.73139 4.02374C4.86081 4.02374 4.96576 4.12813 4.96576 4.25692V4.47293C4.96576 4.60172 4.86081 4.70611 4.73139 4.70611Z" fill="#884C2A"/>
<path d="M4.73711 8.79404C4.86653 8.79404 4.97148 8.89844 4.97148 9.02722V9.24324C4.97148 9.37203 4.86653 9.47642 4.73711 9.47642C4.60769 9.47642 4.50273 9.37203 4.50273 9.24324V9.02722C4.50273 8.89844 4.60769 8.79404 4.73711 8.79404Z" fill="#884C2A"/>
<path d="M11.7656 7.95568C11.8273 7.95568 11.8877 7.98063 11.9313 8.024C11.9749 8.06737 12 8.12753 12 8.18886C12 8.25042 11.9749 8.31035 11.9313 8.35372C11.8877 8.39709 11.8273 8.42204 11.7656 8.42204C11.704 8.42204 11.6435 8.39709 11.5999 8.35372C11.5563 8.31035 11.5312 8.25019 11.5312 8.18886C11.5312 8.12753 11.5563 8.06737 11.5999 8.024C11.6435 7.98063 11.704 7.95568 11.7656 7.95568Z" fill="#884C2A"/>
</svg>
